<svg xmlns="http://www.w3.org/2000/svg" viewBox="0 0 1080 1080" fill="currentColor">
<path fill-rule="evenodd" d="M540 0c298.1 0 540 241.9 540 540s-241.9 540-540 540S0 838.1 0 540 241.9 0 540 0Zm-154 900c-5.333 0-9.333-2-12-6-2.667-4.667-4-9.333-4-14 .667-10 3-15.333 7-16 4-1.333 9.333-2 16-2 18.667 0 31.333-3 38-9 7.333-6.667 11.333-15.333 12-25 .667-10.667 1-21.667 1-33V483h-67c-5.333 0-9.667-2-13-6-2.667-4.667-4-9.333-4-14 .667-10.667 3-16.333 7-17 4.667-1.333 10.333-2 17-2h60v-42c0-44.667 7-84.333 21-119 14-34.667 34.667-62.333 62-83 28-20.667 62-31.333 102-32 20.667 0 40.667 4 60 12 19.333 8 35.333 19.333 48 34 12.667 14 19 31.333 19 52 0 18.667-5.667 36-17 52-11.333 15.333-27.667 23-49 23-14 0-25-3.667-33-11-7.333-7.333-10.667-12.333-10.667-15 0-2 2.667-5 8-9 6-4.667 11.667-11.333 17-19 6-8.667 9-19.333 9-32 0-14.667-5.667-27-17-37-10.667-10.667-24.333-16-41-16-22 0-39 6.667-51 20-12 13.333-20.333 30-25 50-4.667 20-7.667 40.333-9 61-.667 20.667-1 38-1 52v60h98c6.667 0 12.333.667 17 2 4.667.667 7.333 6.333 8 17 0 4.667-1.667 9.333-5 14-2.667 4-6.667 6-12 6h-106v311c0 19.333 1.333 34 4 44 3.333 10 10 16.667 20 20 10.667 2.667 26.333 4 47 4 6.667 0 12 .667 16 2 4 .667 6.333 6 7 16 0 4.667-1.333 9.333-4 14-2 4-5.667 6-11 6-19.333-1.333-40.667-2.333-64-3-23.333 0-43.667 0-61 0-18 0-35 0-51 0-16 .667-33.667 1.667-53 3Z"/>
</svg>
