<svg xmlns="http://www.w3.org/2000/svg" viewBox="42 51 85 75" fill="none" stroke="currentColor" stroke-linecap="round" stroke-linejoin="round" stroke-width="6">
  <g transform="translate(47, 61)">
    <path d="M16.5554385,34.0139587 C16.5554385,34.0139587 0,36.5278419 0,46.9483883 C0,57.3674629 15.1665496,59.6517409 25.5166257,49.2444409 C42.6164969,32.0461239 50,0 50,0 C50,0 44.445908,7.23403752 36.3701557,7.23403752 C36.2691722,7.23403752 36.1681887,7.23256569 36.0686688,7.23109386 C28.3631893,7.05741808 25.5166257,0 25.5166257,0"/>
    <path d="M25,24.6789284 C25,24.6789284 49.5882661,24.6789284 57.3840796,24.6553057 C61.6582548,24.6553057 72.0056392,23.3663951 78.6799961,16.6619925 C90.4266291,4.86248033 80.2997145,-4.81985214 71.5514714,2.58732413 C62.6827047,11.4960149 47.8406752,37.4026767 51.5666155,45.86549 C55.2925557,54.3283033 69.2335985,49.3778823 74.1765322,34.8647185"/>
  </g>
</svg>
