<svg xmlns="http://www.w3.org/2000/svg" xmlns:xlink="http://www.w3.org/1999/xlink" width="40px" height="40px" viewBox="0 0 40 40">
    <g fill="none" fill-rule="evenodd">
        <g stroke="currentColor" stroke-width="2">
            <circle cx="20" cy="20" r="19"></circle>
            <g transform="translate(9.500000, 13.000000)" stroke-linecap="round" stroke-linejoin="round">
                <path d="M4.13885962,8.50348967 C4.13885962,8.50348967 0,9.13196048 0,11.7370971 C0,14.3418657 3.7916374,14.9129352 6.37915642,12.3111102 C10.6541242,8.01153097 12.5,0 12.5,0 C12.5,0 11.111477,1.80850938 9.09253893,1.80850938 C9.06729306,1.80850938 9.04204718,1.80814142 9.01716719,1.80777346 C7.09079733,1.76435452 6.37915642,0 6.37915642,0"></path>
                <path d="M6.25,6.1697321 C6.25,6.1697321 12.3970665,6.1697321 14.3460199,6.16382643 C15.4145637,6.16382643 18.0014098,5.84159876 19.669999,4.16549813 C22.6066573,1.21562008 20.0749286,-1.20496303 17.8878678,0.646831033 C15.6706762,2.87400373 11.9601688,9.35066916 12.8916539,11.4663725 C13.8231389,13.5820758 17.3083996,12.3444706 18.5441331,8.71617963"></path>
            </g>
        </g>
    </g>
</svg>
