<?xml version="1.0" encoding="UTF-8"?>
<svg id="Layer_1" data-name="Layer 1" xmlns="http://www.w3.org/2000/svg" viewBox="0 0 2560 654.21">
  <defs>
    <style>
      .cls-1 {
        fill: currentColor;
      }

      .cls-2 {
        fill: #5cc7ab;
      }
    </style>
  </defs>
  <path class="cls-1" d="M880.02,343.76c96.76,0,131.73-43.49,131.73-95.71s-38.93-91.81-123.53-91.81h-124.99v21.02l39.87,4.4c.77,39.31.79,78.82.79,118.02v20.76c0,39.82-.01,79.32-.78,118.01l-39.87,4.4v21.02h139.85v-21.02l-42.53-4.69c-.65-32.54-.74-63.83-.76-94.39h20.23ZM882.6,179.64c49.77,0,73.83,24.32,73.83,68.28s-21.42,72.71-71.98,72.71h-24.66v-20.95c0-40.52.01-80.7.82-120.03h21.99Z"/>
  <path class="cls-1" d="M1220.31,431.8c-5.22,6.68-9.78,10.18-16.46,10.18-9.06,0-14.48-6.21-14.48-22.41v-100.33c0-59.75-23.27-82.82-75.55-82.82s-89.75,23.46-96.04,59.95c1.98,13.02,10.84,20.36,24.92,20.36s24.72-9.38,27.69-29.67l6.25-26.71c7.99-1.48,14.76-1.91,20.86-1.91,30.14,0,41.11,11.5,41.11,55.13v12.73c-16.61,4.23-33.67,9.2-46.07,13.32-65.7,21.88-81.3,43.62-81.3,72.31,0,38.27,26.9,58.36,61.47,58.36,28.84,0,44-12.19,67.46-35.87,4.97,21.76,20.83,34.88,44.77,34.88,20.62,0,34.7-7.47,45.8-28.09l-10.44-9.39ZM1095.72,437.29c-19.04,0-33.64-10.11-33.64-34.11,0-16.72,8.19-33.51,41.64-46.8,8.32-3.52,21.27-7.84,34.9-11.74v72.36c-21.72,15.53-30.06,20.29-42.9,20.29Z"/>
  <path class="cls-1" d="M1360.4,427.77h-58.3c-20.95,0-26.84-7.67-26.84-19.5,0-9.97,2.95-17.67,9.36-26.41,10.92,3.37,23.4,5.13,37.24,5.13,54.26,0,88.37-28.95,88.37-75.09,0-15.49-3.49-28.82-10.01-39.79h45.11v-31.46l-7.07-4.63-52.26,19.54c-15.16-12.49-36.91-19.14-63.8-19.14-54.59,0-88.7,28.82-88.7,75.48,0,29.71,13.04,51.59,36.2,63.84-22.85,20.93-32.9,37.61-32.9,54.54s9.33,29.49,29.05,36.08c-31.06,14.94-42.73,30.82-42.73,50.64,0,31.33,26.51,55.52,97.1,55.52,80.5,0,122.01-39.53,122.01-82.22,0-38.53-23.99-62.53-81.82-62.53ZM1322.53,256.25c25.71,0,40.12,21.68,40.12,54.4s-15.01,56.51-41.78,56.51-39.53-21.81-39.53-55.19,15.14-55.72,41.18-55.72ZM1323.98,549.06c-38.47,0-60.48-11.9-60.48-41.25,0-13.79,4.06-23.94,13.93-36.31,7.98,1.57,17.54,2.2,27.64,2.2h52.22c30.34,0,41.71,14.67,41.71,32.59,0,23.86-25.84,42.77-75.02,42.77Z"/>
  <path class="cls-1" d="M1638.46,328.49c0-55.98-36.62-92.07-89.56-92.07-58.3,0-110.91,45.08-110.91,118.38s43.29,115.47,107.4,115.47c43.16,0,74.23-19.63,91.81-53.8l-12.75-10.97c-15.6,17.45-33.58,29.68-61.34,29.68-40.24,0-68.62-27.16-70.49-81.17h142.87c1.85-6.68,2.97-15.14,2.97-25.51ZM1561.53,332.59h-68.46c4.02-54.48,29.19-74.16,52.59-74.16s43.43,20.49,43.43,48.45c0,15.99-5.35,25.71-27.56,25.71Z"/>
  <path class="cls-1" d="M1772.64,435.17c-41.64,0-70.53-30.87-70.53-87.18,0-60.54,28.82-89.56,63.65-89.56,6.2,0,12.53.68,19.02,2.13l6.56,28.54c2.84,19.89,12.42,29.94,28.88,29.94,13.55,0,21.55-6.34,24.92-19.89-4.96-35.3-39.2-62.72-83.41-62.72-60.61,0-113.48,43.62-113.48,117.45s44.68,116.4,107.93,116.4c43.62,0,74.69-19.96,89.29-58.1l-13.09-8.99c-13.95,20.09-34.77,31.99-59.75,31.99Z"/>
  <path class="cls-1" d="M1960.34,236.42c-58.36,0-110.25,42.56-110.25,117.12s49.51,116.73,110.25,116.73,110.25-41.77,110.25-116.73-52.55-117.12-110.25-117.12ZM1960.34,448.13c-35.23,0-54.07-30.6-54.07-94.19s18.84-95.38,54.07-95.38,54.07,31.93,54.07,95.38-19.5,94.19-54.07,94.19Z"/>
  <path class="cls-1" d="M2221.08,236.42c-24.57,0-51.03,21.54-65.03,60.83l-4.9-56.07-7.34-4.76-74.15,28.95v16.99l33.58,4.16c.93,18.51,1.39,30.87,1.39,56.32v23.86c0,20.25-.23,49.95-.69,72.99l-30.57,5.86v18.31h121.35v-18.31l-37.87-7.26c-.44-22.84-.66-51.75-.66-71.59v-33.16c7.22-25.21,19.31-44.96,35.97-58.69l4.55,4.73c9.39,9.98,18.97,15.2,30.93,15.2,18.51,0,28.82-12.69,29.21-35.36-4.89-14.67-19.7-23-35.76-23Z"/>
  <path class="cls-1" d="M2456.8,439.48v-246.1l1.85-65.3-6.87-4.1-81.49,20.82v17.51l36.88,4.63v98.01c-17.12-20.11-35.03-28.54-58.76-28.54-55.06,0-99.87,46.53-99.87,118.84s38.73,115.01,93.59,115.01c27.75,0,48.16-10.8,64.82-31.59l3.46,30.07,78.58-4.89v-18.31l-32.19-6.07ZM2361.82,439.01c-33.91,0-58.5-27.36-58.5-84.67s26.64-87.05,58.7-87.05c14.08,0,27.13,5.36,43.23,19.17v131.71c-13.23,13.89-26.38,20.83-43.43,20.83Z"/>
  <path class="cls-2" d="M465.78,64.29c-58.07-29.05-121.37-33.39-183.09-12.58-10.03,3.39-15.42,14.27-12.03,24.29,3.38,10.04,14.24,15.43,24.29,12.04,51.81-17.48,104.95-13.84,153.68,10.54,67.46,33.74,107.54,94.81,121.43,137.03,18.78,55.18,13.61,120.82-13.92,175.82-56.52,116.43-192.81,169.58-310.74,120.8-109.35-41.77-165.81-171.73-123.25-283.9,7.76-20.83,21.88-48.56,33.86-61.24,25.6-27.11,55.18-37.02,87.95-29.4.16.04.32.03.48.06,14.02,3.83,27.19,12.01,38.42,24.17-60.26,55.64-81.92,143.04-81.92,207.58,0,114.31,53.97,126.65,77.17,126.65,54.19,0,87.86-64.9,87.86-169.37,0-59.88-10.67-114.3-30.14-154.35,17.74-9.03,37.44-13.61,58.66-13.61,43.61,0,74.06,27.68,74.06,67.32,0,42.09-41.03,67.52-69.62,69.03-10.81.9-18.65,8.75-18.65,18.67,0,11.63,8.53,20.39,19.83,20.39,45.13,0,108.09-41.12,108.09-108.09,0-61.33-47.82-105.84-113.71-105.84-28.95,0-56.04,6.47-80.63,19.24-22.29-27.32-53.82-42.86-87.47-42.86-.64,0-1.26.14-1.89.21-28.9-.4-63.56,9.14-96.36,43.87-17.41,18.43-33.46,51.48-41.88,74.07-50.74,133.71,14.52,283.18,144.97,333,34.22,14.15,69.8,20.87,104.95,20.87,104.71,0,205.48-59.69,254.34-160.35,32.4-64.71,38.17-139.47,15.89-204.92-21.23-64.58-76.43-127.05-140.63-159.16ZM325.75,351.75c-1.13,82.86-25.1,127.58-47.08,127.58-26.17,0-38.08-46.56-38.08-89.81,0-55.61,19.33-129.17,62.31-173.6,15.35,34.09,23.43,81.81,22.85,135.84Z"/>
</svg>