<?xml version="1.0" encoding="UTF-8"?>
<svg  version="1.2" baseProfile="tiny-ps" xmlns="http://www.w3.org/2000/svg" width="1094" height="1094" viewBox="0 0 1094 1094" fill="none">
<title>Pagecord Logo</title>
<desc>Pagecord brand logo for BIMI authentication</desc>
<rect width="1094" height="1094" fill="#5CC7AB"/>
<path d="M353.539 980.087C411.881 1004.22 472.555 1015.68 532.478 1015.68C711.012 1015.68 882.826 913.913 966.129 742.284C1021.36 631.955 1031.2 504.49 993.225 392.89C957.017 282.791 862.908 176.267 753.444 121.518C654.444 71.9957 546.508 64.588 441.265 100.072C424.163 105.846 414.98 124.396 420.755 141.49C426.52 158.6 445.026 167.792 462.172 162.017C550.507 132.21 641.112 138.426 724.202 179.985C839.228 237.515 907.556 341.628 931.236 413.62C963.25 507.695 954.448 619.621 907.503 713.395C811.134 911.918 578.76 1002.53 377.695 919.37C191.242 848.136 94.9781 626.561 167.545 435.314C180.771 399.794 204.856 352.523 225.278 330.901C268.938 284.671 319.361 267.79 375.232 280.778C375.505 280.839 375.779 280.831 376.053 280.884C399.953 287.417 422.406 301.358 441.556 322.098C338.812 416.967 301.888 565.984 301.888 676.022C301.888 870.915 393.896 891.955 433.46 891.955C525.856 891.955 583.254 781.3 583.254 603.173C583.254 501.082 565.058 408.288 531.869 340.012C562.109 324.605 595.703 316.818 631.885 316.818C706.244 316.818 758.159 364.018 758.159 431.597C758.159 503.36 688.197 546.719 639.46 549.297C621.034 550.834 607.667 564.219 607.667 581.126C607.667 600.948 622.208 615.895 641.474 615.895C718.428 615.895 825.764 545.783 825.764 431.605C825.764 327.033 744.227 251.147 631.885 251.147C582.53 251.147 536.345 262.175 494.407 283.956C456.407 237.374 402.637 210.878 345.275 210.878C344.18 210.878 343.129 211.116 342.052 211.231C292.777 210.542 233.675 226.814 177.76 286.04C148.076 317.463 120.715 373.81 106.359 412.331C19.8512 640.308 131.107 895.16 353.539 980.105V980.087ZM514.696 611.631C512.772 752.905 471.893 829.145 434.422 829.145C389.809 829.145 369.493 749.762 369.493 676.013C369.493 581.197 402.452 455.788 475.733 380.026C501.903 438.157 515.676 519.508 514.696 611.631Z" fill="white"/>
</svg>
