<?xml version="1.0" encoding="UTF-8"?>
<svg version="1.2" baseProfile="tiny-ps" xmlns="http://www.w3.org/2000/svg" width="1094" height="1094" viewBox="0 0 1094 1094">
<title>Pagecord Logo</title>
<desc>Pagecord brand logo for BIMI authentication</desc>
<path d="M328.58 1041.81C394.66 1069.14 463.38 1082.12 531.25 1082.12C733.46 1082.12 928.06 966.86 1022.41 772.47C1084.97 647.51 1096.11 503.14 1053.1 376.74C1012.09 252.04 905.5 131.39 781.52 69.3802C669.39 13.2902 547.14 4.9002 427.94 45.0902C408.57 51.6302 398.17 72.6402 404.71 92.0002C411.24 111.38 432.2 121.79 451.62 115.25C551.67 81.4902 654.29 88.5302 748.4 135.6C878.68 200.76 956.07 318.68 982.89 400.22C1019.15 506.77 1009.18 633.54 956.01 739.75C846.86 964.6 583.67 1067.23 355.94 973.04C144.76 892.36 35.7299 641.4 117.92 424.79C132.9 384.56 160.18 331.02 183.31 306.53C232.76 254.17 289.87 235.05 353.15 249.76C353.46 249.83 353.77 249.82 354.08 249.88C381.15 257.28 406.58 273.07 428.27 296.56C311.9 404.01 270.08 572.79 270.08 697.42C270.08 918.16 374.29 941.99 419.1 941.99C523.75 941.99 588.76 816.66 588.76 614.91C588.76 499.28 568.15 394.18 530.56 316.85C564.81 299.4 602.86 290.58 643.84 290.58C728.06 290.58 786.86 344.04 786.86 420.58C786.86 501.86 707.62 550.97 652.42 553.89C631.55 555.63 616.41 570.79 616.41 589.94C616.41 612.39 632.88 629.32 654.7 629.32C741.86 629.32 863.43 549.91 863.43 420.59C863.43 302.15 771.08 216.2 643.84 216.2C587.94 216.2 535.63 228.69 488.13 253.36C445.09 200.6 384.19 170.59 319.22 170.59C317.98 170.59 316.79 170.86 315.57 170.99C259.76 170.21 192.82 188.64 129.49 255.72C95.87 291.31 64.8799 355.13 48.6199 398.76C-49.3601 656.97 76.6499 945.62 328.58 1041.83V1041.81ZM511.11 624.49C508.93 784.5 462.63 870.85 420.19 870.85C369.66 870.85 346.65 780.94 346.65 697.41C346.65 590.02 383.98 447.98 466.98 362.17C496.62 428.01 512.22 520.15 511.11 624.49Z" fill="#5CC7AB"/>
</svg>
