<svg width="512" height="512" viewBox="0 0 512 512" fill="none" xmlns="http://www.w3.org/2000/svg">
<rect width="512" height="512" fill="white"/>
<path d="M252.584 293.942C254.211 294.175 255.955 294.407 257.816 294.64C259.908 294.64 262.117 294.64 264.443 294.64C277.93 294.64 288.626 289.408 296.532 278.944C304.439 268.48 308.392 251.505 308.392 228.019C308.392 212.905 306.648 200.464 303.16 190.698C299.904 180.931 294.672 173.606 287.464 168.723C280.488 163.84 271.303 161.398 259.908 161.398H244.91L235.841 397.885L275.953 401.722L275.256 408H151.432L152.129 401.722L181.08 398.234L190.497 164.886L163.291 159.654L164.337 153.376H267.582C281.767 153.376 294.672 154.655 306.299 157.213C318.158 159.771 328.273 163.84 336.644 169.421C345.248 174.769 351.875 182.094 356.526 191.395C361.177 200.464 363.502 211.742 363.502 225.229C363.502 238.716 360.828 250.342 355.48 260.109C350.364 269.643 343.272 277.549 334.203 283.827C325.134 289.873 314.67 294.407 302.811 297.43C291.184 300.453 278.86 301.965 265.838 301.965C263.513 301.965 261.071 301.849 258.513 301.616C255.955 301.151 253.63 300.802 251.537 300.57L252.584 293.942Z" fill="black"/>
</svg>
