<svg width="200" height="200" viewBox="0 0 200 200" fill="none" xmlns="http://www.w3.org/2000/svg">
<rect width="200" height="200" fill="currentColor" stroke="currentColor"/>
<path d="M98.716 114.144C99.3133 114.229 99.9533 114.315 100.636 114.4C101.404 114.4 102.215 114.4 103.068 114.4C108.017 114.4 111.943 112.48 114.844 108.64C117.745 104.8 119.196 98.5707 119.196 89.952C119.196 84.4053 118.556 79.84 117.276 76.256C116.081 72.672 114.161 69.984 111.516 68.192C108.956 66.4 105.585 65.504 101.404 65.504H95.9L92.572 152.288L107.292 153.696L107.036 156H61.596L61.852 153.696L72.476 152.416L75.932 66.784L65.948 64.864L66.332 62.56H104.22C109.425 62.56 114.161 63.0293 118.428 63.968C122.78 64.9067 126.492 66.4 129.564 68.448C132.721 70.4107 135.153 73.0987 136.86 76.512C138.567 79.84 139.42 83.9787 139.42 88.928C139.42 93.8773 138.439 98.144 136.476 101.728C134.599 105.227 131.996 108.128 128.668 110.432C125.34 112.651 121.5 114.315 117.148 115.424C112.881 116.533 108.359 117.088 103.58 117.088C102.727 117.088 101.831 117.045 100.892 116.96C99.9533 116.789 99.1 116.661 98.332 116.576L98.716 114.144Z"/>
</svg>
