
<svg viewBox="0 0 201 49" fill="currentColor" stroke="currentColor" xmlns="http://www.w3.org/2000/svg">
<path d="M14.648 20.872C14.904 20.904 15.144 20.936 15.368 20.968C15.592 20.968 15.864 20.968 16.184 20.968C18.072 20.968 19.544 20.296 20.6 18.952C21.656 17.608 22.184 15.512 22.184 12.664C22.184 10.872 21.944 9.4 21.464 8.248C20.984 7.096 20.248 6.248 19.256 5.704C18.296 5.128 17.048 4.84 15.512 4.84H13.592L12.392 34.504L18.008 35.08L17.864 37H0.536L0.728 35.128L4.808 34.504L6.056 5.272L2.12 4.504L2.36 2.584H17.192C19.176 2.584 20.952 2.776 22.52 3.16C24.088 3.544 25.416 4.136 26.504 4.936C27.624 5.704 28.472 6.712 29.048 7.96C29.656 9.176 29.96 10.632 29.96 12.328C29.96 14.056 29.624 15.592 28.952 16.936C28.28 18.28 27.336 19.416 26.12 20.344C24.936 21.24 23.544 21.928 21.944 22.408C20.376 22.856 18.68 23.08 16.856 23.08C16.44 23.08 16.024 23.064 15.608 23.032C15.224 23 14.856 22.968 14.504 22.936L14.648 20.872ZM51.9451 32.44C51.9131 33.144 51.9771 33.672 52.1371 34.024C52.2971 34.376 52.6491 34.552 53.1931 34.552C53.6731 34.552 54.1691 34.424 54.6811 34.168C55.1931 33.88 55.6411 33.608 56.0251 33.352L56.7451 34.936C56.4251 35.256 55.8971 35.64 55.1611 36.088C54.4251 36.504 53.6091 36.872 52.7131 37.192C51.8171 37.512 50.8891 37.672 49.9291 37.672C48.9051 37.672 48.0091 37.464 47.2411 37.048C46.5051 36.632 45.9771 36.024 45.6571 35.224C45.3371 34.392 45.2571 33.368 45.4171 32.152L46.9531 21.88L46.5211 21.784L44.7931 28.024C44.4411 29.368 44.0571 30.616 43.6411 31.768C43.2571 32.92 42.7611 33.944 42.1531 34.84C41.5771 35.736 40.8251 36.44 39.8971 36.952C38.9691 37.432 37.8171 37.672 36.4411 37.672C34.6171 37.672 33.1131 37.224 31.9291 36.328C30.7771 35.4 29.9131 34.168 29.3371 32.632C28.7931 31.064 28.5211 29.288 28.5211 27.304C28.5211 25.064 28.7931 23 29.3371 21.112C29.8811 19.192 30.6811 17.528 31.7371 16.12C32.8251 14.68 34.1211 13.576 35.6251 12.808C37.1611 12.008 38.9051 11.608 40.8571 11.608C42.1371 11.608 43.2891 11.752 44.3131 12.04C45.3691 12.328 46.2171 12.616 46.8571 12.904L51.5611 11.608L52.5691 12.136L51.9451 32.44ZM38.7451 33.64C39.3211 33.64 39.8171 33.496 40.2331 33.208C40.6811 32.92 41.0811 32.424 41.4331 31.72C41.8171 31.016 42.2011 30.04 42.5851 28.792C43.0011 27.544 43.4651 25.96 43.9771 24.04L46.3771 14.968C45.7051 14.616 44.9851 14.328 44.2171 14.104C43.4811 13.848 42.7451 13.72 42.0091 13.72C41.0171 13.72 40.1371 14.056 39.3691 14.728C38.6331 15.4 38.0091 16.344 37.4971 17.56C37.0171 18.776 36.6491 20.232 36.3931 21.928C36.1371 23.624 35.9771 25.512 35.9131 27.592C35.9131 29.032 36.0091 30.2 36.2011 31.096C36.3931 31.992 36.6971 32.648 37.1131 33.064C37.5291 33.448 38.0731 33.64 38.7451 33.64ZM74.6034 21.352L74.1714 21.304L72.4434 27.592C71.8354 29.832 71.1794 31.672 70.4754 33.112C69.7714 34.552 68.8914 35.624 67.8354 36.328C66.8114 37.032 65.5154 37.384 63.9474 37.384C62.0274 37.384 60.4754 36.92 59.2914 35.992C58.1394 35.032 57.3074 33.768 56.7954 32.2C56.2834 30.6 56.0274 28.856 56.0274 26.968C56.0274 24.024 56.5234 21.4 57.5154 19.096C58.5394 16.76 59.9794 14.936 61.8354 13.624C63.6914 12.28 65.8994 11.608 68.4594 11.608C69.4194 11.608 70.4274 11.72 71.4834 11.944C72.5394 12.136 73.5794 12.456 74.6034 12.904L78.7314 11.56L80.1714 12.184L79.2594 33.208C79.1954 34.616 78.9714 36.024 78.5874 37.432C78.2034 38.872 77.6434 40.216 76.9074 41.464C76.1714 42.744 75.2114 43.864 74.0274 44.824C72.8754 45.816 71.4834 46.6 69.8514 47.176C68.2514 47.752 66.3954 48.04 64.2834 48.04C63.4194 48.04 62.5074 47.944 61.5474 47.752C60.6194 47.592 59.7554 47.32 58.9554 46.936C58.1874 46.552 57.5634 46.04 57.0834 45.4C56.6034 44.792 56.3634 44.024 56.3634 43.096C56.3634 42.008 56.6994 41.112 57.3714 40.408C58.0754 39.704 58.9714 39.352 60.0594 39.352C60.4754 39.352 60.8914 39.416 61.3074 39.544C61.7554 39.672 62.1714 39.832 62.5554 40.024C62.9394 40.248 63.2594 40.504 63.5154 40.792L63.0354 42.232C62.7794 43.032 62.6674 43.72 62.6994 44.296C62.7314 44.872 62.9394 45.304 63.3234 45.592C63.7394 45.88 64.3634 46.024 65.1954 46.024C66.6674 46.024 67.8994 45.496 68.8914 44.44C69.8834 43.416 70.6994 41.88 71.3394 39.832C71.9794 37.816 72.5234 35.32 72.9714 32.344L74.6034 21.352ZM66.3474 33.304C66.8914 33.304 67.3874 33.144 67.8354 32.824C68.3154 32.472 68.7634 31.864 69.1794 31C69.5954 30.136 70.0434 28.968 70.5234 27.496C71.0034 25.992 71.5474 24.088 72.1554 21.784L73.8834 14.968C73.2434 14.584 72.5394 14.28 71.7714 14.056C71.0034 13.832 70.2674 13.72 69.5634 13.72C68.6354 13.72 67.7874 14.04 67.0194 14.68C66.2834 15.32 65.6434 16.232 65.0994 17.416C64.5874 18.568 64.1874 19.96 63.8994 21.592C63.6114 23.192 63.4514 25 63.4194 27.016C63.4194 29.224 63.6274 30.824 64.0434 31.816C64.4914 32.808 65.2594 33.304 66.3474 33.304ZM95.4268 11.608C98.1788 11.608 100.227 12.168 101.571 13.288C102.915 14.376 103.587 15.848 103.587 17.704C103.587 18.984 103.331 20.04 102.819 20.872C102.307 21.704 101.603 22.392 100.707 22.936C99.8108 23.48 98.7868 23.944 97.6348 24.328C96.5148 24.68 95.3468 25.016 94.1308 25.336L89.4748 26.392C89.5388 28.312 89.7948 29.88 90.2428 31.096C90.6908 32.312 91.3148 33.224 92.1148 33.832C92.9148 34.408 93.8588 34.696 94.9468 34.696C95.8108 34.696 96.6268 34.536 97.3948 34.216C98.1628 33.896 98.9148 33.464 99.6508 32.92C100.387 32.344 101.091 31.704 101.763 31L103.011 32.536C102.627 33.016 102.115 33.56 101.475 34.168C100.867 34.744 100.131 35.304 99.2668 35.848C98.4028 36.36 97.4428 36.792 96.3868 37.144C95.3308 37.496 94.1628 37.672 92.8828 37.672C90.5788 37.672 88.5948 37.208 86.9308 36.28C85.2988 35.352 84.0508 34.024 83.1868 32.296C82.3548 30.568 81.9388 28.552 81.9388 26.248C81.9388 23.272 82.4828 20.696 83.5708 18.52C84.6908 16.312 86.2588 14.616 88.2748 13.432C90.2908 12.216 92.6748 11.608 95.4268 11.608ZM97.1068 17.56C97.1068 16.76 97.0268 16.072 96.8668 15.496C96.7068 14.888 96.4508 14.424 96.0988 14.104C95.7468 13.784 95.2508 13.624 94.6108 13.624C93.5868 13.624 92.7068 14.024 91.9708 14.824C91.2668 15.592 90.6908 16.776 90.2428 18.376C89.8268 19.944 89.5548 21.912 89.4268 24.28L92.8348 23.416C93.7948 23.16 94.5788 22.84 95.1868 22.456C95.8268 22.04 96.3068 21.448 96.6268 20.68C96.9468 19.912 97.1068 18.872 97.1068 17.56ZM117.587 11.608C119.091 11.608 120.467 11.848 121.715 12.328C122.963 12.808 123.955 13.528 124.691 14.488C125.459 15.416 125.843 16.6 125.843 18.04C125.843 19.16 125.523 20.056 124.883 20.728C124.243 21.4 123.411 21.736 122.387 21.736C121.651 21.736 120.931 21.528 120.227 21.112C119.555 20.664 119.075 20.104 118.787 19.432L119.795 18.04C120.403 17.176 120.675 16.424 120.611 15.784C120.547 15.112 120.259 14.584 119.747 14.2C119.267 13.816 118.627 13.624 117.827 13.624C116.803 13.624 115.891 13.944 115.091 14.584C114.323 15.192 113.699 16.056 113.219 17.176C112.739 18.296 112.371 19.608 112.115 21.112C111.891 22.584 111.779 24.2 111.779 25.96C111.779 27.688 111.939 29.224 112.259 30.568C112.579 31.88 113.107 32.92 113.843 33.688C114.611 34.424 115.651 34.792 116.963 34.792C117.891 34.792 118.755 34.616 119.555 34.264C120.387 33.912 121.155 33.432 121.859 32.824C122.595 32.216 123.283 31.544 123.923 30.808L125.267 32.296C125.011 32.68 124.595 33.176 124.019 33.784C123.475 34.392 122.771 35 121.907 35.608C121.075 36.184 120.083 36.664 118.931 37.048C117.779 37.464 116.451 37.672 114.947 37.672C112.835 37.672 110.963 37.224 109.331 36.328C107.699 35.4 106.435 34.072 105.539 32.344C104.643 30.584 104.195 28.488 104.195 26.056C104.195 24.136 104.451 22.312 104.963 20.584C105.507 18.824 106.323 17.272 107.411 15.928C108.531 14.584 109.923 13.528 111.587 12.76C113.283 11.992 115.283 11.608 117.587 11.608ZM137.5 37.72C134.94 37.72 132.812 37.208 131.116 36.184C129.452 35.16 128.204 33.736 127.372 31.912C126.54 30.088 126.124 27.976 126.124 25.576C126.124 23.72 126.364 21.944 126.844 20.248C127.324 18.552 128.076 17.064 129.1 15.784C130.156 14.472 131.516 13.448 133.18 12.712C134.844 11.944 136.86 11.56 139.228 11.56C141.724 11.56 143.804 12.056 145.468 13.048C147.164 14.008 148.428 15.384 149.26 17.176C150.124 18.968 150.556 21.112 150.556 23.608C150.556 25.432 150.316 27.192 149.836 28.888C149.388 30.552 148.652 32.056 147.628 33.4C146.604 34.712 145.26 35.768 143.596 36.568C141.932 37.336 139.9 37.72 137.5 37.72ZM137.98 35.512C139.388 35.512 140.444 35 141.148 33.976C141.884 32.92 142.364 31.496 142.588 29.704C142.844 27.88 142.972 25.832 142.972 23.56C142.972 21.448 142.86 19.656 142.636 18.184C142.444 16.712 142.044 15.592 141.436 14.824C140.828 14.056 139.932 13.672 138.748 13.672C137.852 13.672 137.084 13.912 136.444 14.392C135.836 14.84 135.324 15.56 134.908 16.552C134.524 17.544 134.236 18.808 134.044 20.344C133.884 21.848 133.804 23.656 133.804 25.768C133.804 27.912 133.932 29.704 134.188 31.144C134.444 32.584 134.876 33.672 135.484 34.408C136.092 35.144 136.924 35.512 137.98 35.512ZM154.489 16.216C154.489 15.704 154.425 15.288 154.297 14.968C154.169 14.616 153.849 14.44 153.337 14.44C153.049 14.44 152.697 14.504 152.281 14.632C151.865 14.728 151.321 14.904 150.649 15.16L150.073 13.288C150.713 12.968 151.417 12.68 152.185 12.424C152.985 12.168 153.785 11.976 154.585 11.848C155.417 11.688 156.169 11.608 156.841 11.608C158.409 11.608 159.529 12.088 160.201 13.048C160.905 13.976 161.161 15.304 160.969 17.032L159.961 26.488H160.297L163.081 18.28C163.593 16.776 164.121 15.528 164.665 14.536C165.241 13.544 165.913 12.808 166.681 12.328C167.449 11.848 168.409 11.608 169.561 11.608C170.457 11.608 171.209 11.784 171.817 12.136C172.457 12.456 172.937 12.904 173.257 13.48C173.609 14.056 173.785 14.68 173.785 15.352C173.785 16.28 173.513 17.128 172.969 17.896C172.457 18.632 171.689 19.24 170.665 19.72L169.321 18.088C168.937 17.608 168.601 17.272 168.313 17.08C168.057 16.856 167.769 16.744 167.449 16.744C167.225 16.744 166.985 16.808 166.729 16.936C166.505 17.064 166.265 17.32 166.009 17.704C165.753 18.056 165.449 18.6 165.097 19.336C164.777 20.04 164.377 21 163.897 22.216C163.225 23.816 162.681 25.176 162.265 26.296C161.881 27.384 161.561 28.312 161.305 29.08C161.081 29.848 160.889 30.568 160.729 31.24C160.601 31.88 160.473 32.568 160.345 33.304L159.817 37H153.721L154.489 16.216ZM195.89 32.584C195.858 33.192 195.922 33.672 196.082 34.024C196.242 34.376 196.61 34.552 197.186 34.552C197.698 34.552 198.21 34.424 198.722 34.168C199.234 33.88 199.698 33.608 200.114 33.352L200.786 34.888C200.466 35.176 199.938 35.544 199.202 35.992C198.466 36.44 197.618 36.824 196.658 37.144C195.698 37.496 194.706 37.672 193.682 37.672C191.922 37.672 190.69 37.144 189.986 36.088C189.282 35.032 189.058 33.672 189.314 32.008L191.042 20.584L190.61 20.488L188.834 27.304C188.482 28.712 188.082 30.04 187.634 31.288C187.218 32.536 186.706 33.64 186.098 34.6C185.49 35.56 184.706 36.312 183.746 36.856C182.786 37.4 181.586 37.672 180.146 37.672C178.898 37.672 177.778 37.416 176.786 36.904C175.826 36.392 175.01 35.672 174.338 34.744C173.666 33.784 173.154 32.664 172.802 31.384C172.482 30.072 172.322 28.648 172.322 27.112C172.322 24.936 172.594 22.92 173.138 21.064C173.714 19.176 174.53 17.528 175.586 16.12C176.642 14.68 177.938 13.576 179.474 12.808C181.01 12.008 182.77 11.608 184.754 11.608C185.746 11.608 186.738 11.72 187.73 11.944C188.722 12.168 189.506 12.44 190.082 12.76L190.514 3.016L185.762 2.104L186.002 0.183999H196.418L196.946 0.808L195.89 32.584ZM182.498 33.592C183.042 33.592 183.522 33.48 183.938 33.256C184.386 33 184.802 32.536 185.186 31.864C185.57 31.16 185.97 30.168 186.386 28.888C186.802 27.608 187.282 25.912 187.826 23.8L190.178 14.968C189.73 14.712 189.25 14.504 188.738 14.344C188.226 14.152 187.714 14.008 187.202 13.912C186.722 13.784 186.274 13.72 185.858 13.72C184.834 13.72 183.938 14.072 183.17 14.776C182.402 15.448 181.762 16.408 181.25 17.656C180.77 18.872 180.402 20.344 180.146 22.072C179.89 23.768 179.762 25.656 179.762 27.736C179.762 29.688 179.97 31.16 180.386 32.152C180.802 33.112 181.506 33.592 182.498 33.592Z"/>
</svg>
